<svg width="21" height="26" viewBox="0 0 21 26" fill="none" xmlns="http://www.w3.org/2000/svg">
<path d="M17.4843 13.346C17.5093 11.4128 18.5474 9.58364 20.1944 8.57111C19.1554 7.08724 17.4151 6.14642 15.6046 6.08978C13.6734 5.88708 11.8013 7.24533 10.8172 7.24533C9.81411 7.24533 8.29899 6.1099 6.66745 6.14347C4.54081 6.21218 2.55824 7.42127 1.52359 9.28052C-0.700511 13.1312 0.958467 18.7904 3.08897 21.903C4.1549 23.4272 5.40068 25.1297 7.03074 25.0693C8.62586 25.0031 9.22161 24.0522 11.1471 24.0522C13.0546 24.0522 13.6136 25.0693 15.2767 25.0309C16.9883 25.0031 18.0668 23.5 19.0953 21.9614C19.8612 20.8754 20.4505 19.6751 20.8415 18.405C18.83 17.5543 17.4867 15.53 17.4843 13.346Z" fill="white"/>
<path d="M14.3429 4.04278C15.2762 2.92244 15.736 1.48243 15.6246 0.0285645C14.1988 0.178318 12.8818 0.859761 11.9359 1.93712C11.011 2.98975 10.5296 4.40442 10.6206 5.80271C12.047 5.8174 13.4492 5.15443 14.3429 4.04278Z" fill="white"/>
</svg>
